# xmcd
#
# Track frame offsets:
#	150
#	17452
#	33146
#	48213
#	63097
#	75291
#	92555
#	101919
#	119888
#	129619
#	146891
#	147265
#	161086
#	175073
#	186104
#	210488
#	224737
#	239004
#	252155
#	264829
#	275428
#
# Disc length: 3804 seconds
#
# Revision: 0
# Processed by: cddbd v1.4PL0 Copyright (c) Steve Scherf et al.
# Submitted via: dBpowerAMP V4.0
#
DISCID=2f0eda15
DTITLE=David Allen Coe - Nothing Sacred and Underground
DYEAR=1978
DGENRE=Country
TTITLE0=Nothin Sacred
TTITLE1=Pussy Whipped Again
TTITLE2=Cum Stains On The Pillow
TTITLE3=Linda Lovelace
TTITLE4=Fuck Aneta Briant
TTITLE5=Jimmy Buffet
TTITLE6=This Will Only Hurt For A Little While
TTITLE7=Whips And Things
TTITLE8=Rails
TTITLE9=Masterbation Blues
TTITLE10=Album Spacer
TTITLE11=Rock And Roll Forever
TTITLE12=Panheads Forever
TTITLE13=Nigger Fucker
TTITLE14=Coffee
TTITLE15=One Monkey
TTITLE16=One More Time
TTITLE17=Little Suzzie Shallow Throat
TTITLE18=Pick Em, Lick Em' Stick Em
TTITLE19=Don't Bight The Dick
TTITLE20=Fuckin In The Butt
EXTD=only availible at mt,klein texas
EXTT0=
EXTT1=
EXTT2=
EXTT3=
EXTT4=
EXTT5=
EXTT6=
EXTT7=
EXTT8=
EXTT9=
EXTT10=
EXTT11=
EXTT12=
EXTT13=
EXTT14=
EXTT15=
EXTT16=
EXTT17=
EXTT18=
EXTT19=
EXTT20=
PLAYORDER=
